<svg style="position: absolute; width: 0; height: 0; overflow: hidden;" version="1.1" xmlns="http://www.w3.org/2000/svg" xmlns:xlink="http://www.w3.org/1999/xlink">
<defs>

<symbol id="icon-sad_face" viewBox="0 0 567.419 567.419"><!-- footer.php -->
	<path d="M409.93,209.297c0,18.056-14.627,32.692-32.683,32.692c-18.047,0-32.683-14.636-32.683-32.692 s14.636-32.683,32.683-32.683C395.303,176.614,409.93,191.241,409.93,209.297z"/>
	<path d="M222.011,209.297c0,18.056-14.636,32.692-32.683,32.692s-32.683-14.636-32.683-32.692 s14.636-32.683,32.683-32.683S222.011,191.241,222.011,209.297z"/>
	<path d="M172.538,453.621c-7.434,0-13.468-6.025-13.468-13.468c0-58.138,46.762-105.439,104.245-105.439h45.397 c57.483,0,104.245,47.04,104.245,104.855c0,7.443-6.025,13.477-13.468,13.477c-7.435,0-13.459-6.034-13.459-13.477 c0-42.955-34.685-77.91-77.317-77.91h-45.397c-42.632,0-77.308,35.206-77.308,78.493 C186.006,447.596,179.972,453.621,172.538,453.621z"/>
	<path d="M283.714,567.419c-156.403,0-283.642-127.275-283.642-283.714C0.072,127.275,127.311,0,283.714,0 c156.394,0,283.633,127.275,283.633,283.705C567.347,440.143,440.108,567.419,283.714,567.419z M283.714,26.946 c-141.552,0-256.705,115.181-256.705,256.759c0,141.588,115.154,256.768,256.705,256.768 c141.543,0,256.696-115.181,256.696-256.768C540.41,142.126,425.257,26.946,283.714,26.946z"/>
</symbol>
<symbol id="icon-arrow-up" viewBox="0 0 512 512"><!-- header.php -->
	<path d="M256,0C114.844,0,0,114.844,0,256s114.844,256,256,256s256-114.844,256-256S397.156,0,256,0z M256,490.667 C126.604,490.667,21.333,385.396,21.333,256S126.604,21.333,256,21.333S490.667,126.604,490.667,256S385.396,490.667,256,490.667 z"/>
	<path d="M263.542,109.792c-4.167-4.167-10.917-4.167-15.083,0l-96,96c-4.167,4.167-4.167,10.917,0,15.083 c4.167,4.167,10.917,4.167,15.083,0l77.792-77.792v251.583c0,5.896,4.771,10.667,10.667,10.667s10.667-4.771,10.667-10.667 V143.083l77.792,77.792c2.083,2.083,4.813,3.125,7.542,3.125c2.729,0,5.458-1.042,7.542-3.125c4.167-4.167,4.167-10.917,0-15.083 L263.542,109.792z"/>
</symbol>
<symbol id="icon-percent" viewBox="0 0 512.004 512.004"><!-- product-item.php -->
	<path d="M507.312,4.692c-6.256-6.256-16.368-6.256-22.624,0L4.88,484.5c-6.256,6.256-6.256,16.368,0,22.624 c3.12,3.12,7.216,4.688,11.312,4.688s8.176-1.552,11.312-4.688L507.312,27.316C513.568,21.06,513.568,10.948,507.312,4.692z"/>
	<path d="M112.144,0.18C50.32,0.18,0,50.468,0,112.276C0,174.1,50.32,224.404,112.144,224.404 c61.808,0,112.112-50.288,112.112-112.128C224.256,50.468,173.952,0.18,112.144,0.18z M112.144,192.42
			C67.952,192.42,32,156.484,32,112.292c0-44.16,35.952-80.096,80.144-80.096c44.176,0,80.112,35.936,80.112,80.096 C192.256,156.484,156.32,192.42,112.144,192.42z"/>
	<path d="M399.696,287.748c-61.808,0-112.112,50.304-112.112,112.112c0,61.824,50.304,112.144,112.112,112.144 c61.824,0,112.112-50.32,112.112-112.144C511.808,338.052,461.504,287.748,399.696,287.748z M399.696,480.004 c-44.176,0-80.112-35.952-80.112-80.144c0-44.176,35.936-80.112,80.112-80.112c44.176,0,80.112,35.936,80.112,80.112 C479.808,444.052,443.872,480.004,399.696,480.004z"/>
</symbol>
<symbol id="icon-share" viewBox="0 0 424.96 424.96">
	<path d="M340.48,300.587c-16.213,0-30.827,6.293-41.92,16.427l-152-88.64c1.173-4.8,1.92-9.813,1.92-14.933 s-0.747-10.133-1.92-14.933l150.4-87.787c11.413,10.667,26.667,17.28,43.52,17.28c35.307,0,64-28.693,64-64 c0-35.307-28.693-64-64-64c-35.307,0-64,28.693-64,64c0,5.12,0.747,10.133,1.92,14.933L128,166.72 c-11.413-10.667-26.667-17.28-43.52-17.28c-35.307,0-64,28.693-64,64c0,35.307,28.693,64,64,64c16.853,0,32.107-6.613,43.52-17.28 l152,88.64c-1.067,4.48-1.707,9.173-1.707,13.973c0,34.347,27.84,62.187,62.187,62.187s62.187-27.84,62.187-62.187 S374.827,300.587,340.48,300.587z"/>
</symbol>
<symbol id="icon-arrow-right" viewBox="0 0 16 16">
	<path fill-rule="evenodd" d="M10.146 4.646a.5.5 0 0 1 .708 0l3 3a.5.5 0 0 1 0 .708l-3 3a.5.5 0 0 1-.708-.708L12.793 8l-2.647-2.646a.5.5 0 0 1 0-.708z"/>
	<path fill-rule="evenodd" d="M2 8a.5.5 0 0 1 .5-.5H13a.5.5 0 0 1 0 1H2.5A.5.5 0 0 1 2 8z"/>
</symbol>
<symbol id="icon-twitter" viewBox="0 0 30 32">
	<path d="M28.929 7.286q-1.196 1.75-2.893 2.982 0.018 0.25 0.018 0.75 0 2.321-0.679 4.634t-2.063 4.437-3.295 3.759-4.607 2.607-5.768 0.973q-4.839 0-8.857-2.589 0.625 0.071 1.393 0.071 4.018 0 7.161-2.464-1.875-0.036-3.357-1.152t-2.036-2.848q0.589 0.089 1.089 0.089 0.768 0 1.518-0.196-2-0.411-3.313-1.991t-1.313-3.67v-0.071q1.214 0.679 2.607 0.732-1.179-0.786-1.875-2.054t-0.696-2.75q0-1.571 0.786-2.911 2.161 2.661 5.259 4.259t6.634 1.777q-0.143-0.679-0.143-1.321 0-2.393 1.688-4.080t4.080-1.688q2.5 0 4.214 1.821 1.946-0.375 3.661-1.393-0.661 2.054-2.536 3.179 1.661-0.179 3.321-0.893z"></path>
</symbol>
<symbol id="icon-facebook" viewBox="0 0 19 32">
	<path d="M17.125 0.214v4.714h-2.804q-1.536 0-2.071 0.643t-0.536 1.929v3.375h5.232l-0.696 5.286h-4.536v13.554h-5.464v-13.554h-4.554v-5.286h4.554v-3.893q0-3.321 1.857-5.152t4.946-1.83q2.625 0 4.071 0.214z"></path>
</symbol>

<!-- bootstrap icons -->
<symbol id="icon-bi-remove" viewBox="0 0 16 16"><!--header.php,footer.php,archive-product.php,comment-image-modal.php,single-image-modal.php,functions.php -->
	<path fill-rule="evenodd" d="M11.854 4.146a.5.5 0 010 .708l-7 7a.5.5 0 01-.708-.708l7-7a.5.5 0 01.708 0z" clip-rule="evenodd"/>
	<path fill-rule="evenodd" d="M4.146 4.146a.5.5 0 000 .708l7 7a.5.5 0 00.708-.708l-7-7a.5.5 0 00-.708 0z" clip-rule="evenodd"/>
</symbol>
<symbol id="icon-bi-star-outline" viewBox="0 0 16 16"><!-- header.php, rating.php -->
	<path fill-rule="evenodd" d="M2.866 14.85c-.078.444.36.791.746.593l4.39-2.256 4.389 2.256c.386.198.824-.149.746-.592l-.83-4.73 3.523-3.356c.329-.314.158-.888-.283-.95l-4.898-.696L8.465.792a.513.513 0 00-.927 0L5.354 5.12l-4.898.696c-.441.062-.612.636-.283.95l3.523 3.356-.83 4.73zm4.905-2.767l-3.686 1.894.694-3.957a.565.565 0 00-.163-.505L1.71 6.745l4.052-.576a.525.525 0 00.393-.288l1.847-3.658 1.846 3.658a.525.525 0 00.393.288l4.052.575-2.906 2.77a.564.564 0 00-.163.506l.694 3.957-3.686-1.894a.503.503 0 00-.461 0z" clip-rule="evenodd"/>
</symbol>
<symbol id="icon-bi-star" viewBox="0 0 16 16"><!-- rating.php -->
	<path d="M3.612 15.443c-.386.198-.824-.149-.746-.592l.83-4.73L.173 6.765c-.329-.314-.158-.888.283-.95l4.898-.696L7.538.792c.197-.39.73-.39.927 0l2.184 4.327 4.898.696c.441.062.612.636.283.95l-3.523 3.356.83 4.73c.078.443-.36.79-.746.592L8 13.187l-4.389 2.256z"/>
</symbol>
<symbol id="icon-bi-chevron-left" viewBox="0 0 16 16"><!-- homepage.php,single-product.php -->
	<path fill-rule="evenodd" d="M11.354 1.646a.5.5 0 010 .708L5.707 8l5.647 5.646a.5.5 0 01-.708.708l-6-6a.5.5 0 010-.708l6-6a.5.5 0 01.708 0z" clip-rule="evenodd"/>
</symbol>
<symbol id="icon-bi-chevron-down" viewBox="0 0 16 16"><!-- widgets-theme.php -->
	<path fill-rule="evenodd" d="M1.646 4.646a.5.5 0 01.708 0L8 10.293l5.646-5.647a.5.5 0 01.708.708l-6 6a.5.5 0 01-.708 0l-6-6a.5.5 0 010-.708z" clip-rule="evenodd"/>
</symbol>
<symbol id="icon-bi-check2" viewBox="0 0 16 16"><!-- add-to-cart.php -->
	<path fill-rule="evenodd" d="M13.854 3.646a.5.5 0 010 .708l-7 7a.5.5 0 01-.708 0l-3.5-3.5a.5.5 0 11.708-.708L6.5 10.293l6.646-6.647a.5.5 0 01.708 0z" clip-rule="evenodd"/>
</symbol>
<symbol id="icon-bi-plus-circle" viewBox="0 0 16 16"><!-- single-product.php -->
	<path fill-rule="evenodd" d="M8 3.5a.5.5 0 01.5.5v4a.5.5 0 01-.5.5H4a.5.5 0 010-1h3.5V4a.5.5 0 01.5-.5z" clip-rule="evenodd"/>
	<path fill-rule="evenodd" d="M7.5 8a.5.5 0 01.5-.5h4a.5.5 0 010 1H8.5V12a.5.5 0 01-1 0V8z" clip-rule="evenodd"/>
	<path fill-rule="evenodd" d="M8 15A7 7 0 108 1a7 7 0 000 14zm0 1A8 8 0 108 0a8 8 0 000 16z" clip-rule="evenodd"/>
</symbol>
<symbol id="icon-bi-plus" viewBox="0 0 16 16"><!-- variation-add-to-cart-button.php -->
	<path fill-rule="evenodd" d="M8 3.5a.5.5 0 01.5.5v4a.5.5 0 01-.5.5H4a.5.5 0 010-1h3.5V4a.5.5 0 01.5-.5z" clip-rule="evenodd"/>
	<path fill-rule="evenodd" d="M7.5 8a.5.5 0 01.5-.5h4a.5.5 0 010 1H8.5V12a.5.5 0 01-1 0V8z" clip-rule="evenodd"/>
</symbol>
<symbol id="icon-bi-minus" viewBox="0 0 16 16"><!-- variation-add-to-cart-button.php -->
	<path fill-rule="evenodd" d="M2.5 8a.5.5 0 01.5-.5h10.5a.5.5 0 010 1H3a.5.5 0 01-.5-.5z" clip-rule="evenodd"/>
</symbol>
<symbol id="icon-bi-pen" viewBox="0 0 16 16"><!-- single-product.php -->
	<path fill-rule="evenodd" d="M5.707 13.707a1 1 0 01-.39.242l-3 1a1 1 0 01-1.266-1.265l1-3a1 1 0 01.242-.391L10.086 2.5a2 2 0 012.828 0l.586.586a2 2 0 010 2.828l-7.793 7.793zM3 11l7.793-7.793a1 1 0 011.414 0l.586.586a1 1 0 010 1.414L5 13l-3 1 1-3z" clip-rule="evenodd"/>
	<path fill-rule="evenodd" d="M9.854 2.56a.5.5 0 00-.708 0L5.854 5.855a.5.5 0 01-.708-.708L8.44 1.854a1.5 1.5 0 012.122 0l.293.292a.5.5 0 01-.707.708l-.293-.293z" clip-rule="evenodd"/>
	<path d="M13.293 1.207a1 1 0 011.414 0l.03.03a1 1 0 01.03 1.383L13.5 4 12 2.5l1.293-1.293z"/>
</symbol>
<symbol id="icon-bi-image" viewBox="0 0 16 16"><!-- comment-form.php -->
	<path fill-rule="evenodd" d="M14.002 2h-12a1 1 0 00-1 1v10a1 1 0 001 1h12a1 1 0 001-1V3a1 1 0 00-1-1zm-12-1a2 2 0 00-2 2v10a2 2 0 002 2h12a2 2 0 002-2V3a2 2 0 00-2-2h-12z" clip-rule="evenodd"/>
	<path d="M10.648 7.646a.5.5 0 01.577-.093L15.002 9.5V14h-14v-2l2.646-2.354a.5.5 0 01.63-.062l2.66 1.773 3.71-3.71z"/>
	<path fill-rule="evenodd" d="M4.502 7a1.5 1.5 0 100-3 1.5 1.5 0 000 3z" clip-rule="evenodd"/>
</symbol>
<symbol id="icon-bi-patch-check" viewBox="0 0 16 16"><!-- comment-item.php -->
	<path fill-rule="evenodd" d="M10.273 2.513l-.921-.944.715-.698.622.637.89-.011a2.89 2.89 0 0 1 2.924 2.924l-.01.89.636.622a2.89 2.89 0 0 1 0 4.134l-.637.622.011.89a2.89 2.89 0 0 1-2.924 2.924l-.89-.01-.622.636a2.89 2.89 0 0 1-4.134 0l-.622-.637-.89.011a2.89 2.89 0 0 1-2.924-2.924l.01-.89-.636-.622a2.89 2.89 0 0 1 0-4.134l.637-.622-.011-.89a2.89 2.89 0 0 1 2.924-2.924l.89.01.622-.636a2.89 2.89 0 0 1 4.134 0l-.715.698a1.89 1.89 0 0 0-2.704 0l-.92.944-1.32-.016a1.89 1.89 0 0 0-1.911 1.912l.016 1.318-.944.921a1.89 1.89 0 0 0 0 2.704l.944.92-.016 1.32a1.89 1.89 0 0 0 1.912 1.911l1.318-.016.921.944a1.89 1.89 0 0 0 2.704 0l.92-.944 1.32.016a1.89 1.89 0 0 0 1.911-1.912l-.016-1.318.944-.921a1.89 1.89 0 0 0 0-2.704l-.944-.92.016-1.32a1.89 1.89 0 0 0-1.912-1.911l-1.318.016z"/>
  <path fill-rule="evenodd" d="M10.354 6.146a.5.5 0 0 1 0 .708l-3 3a.5.5 0 0 1-.708 0l-1.5-1.5a.5.5 0 1 1 .708-.708L7 8.793l2.646-2.647a.5.5 0 0 1 .708 0z"/>
</symbol>
<!-- END bootstrap icons -->

</defs>
</svg>