<svg style="position: absolute; width: 0; height: 0; overflow: hidden;" version="1.1" xmlns="http://www.w3.org/2000/svg" xmlns:xlink="http://www.w3.org/1999/xlink">
<defs>

<!-- bootstrap icons -->
<symbol id="bi-twitter" viewBox="0 0 16 16">
  <path d="M5.026 15c6.038 0 9.341-5.003 9.341-9.334 0-.14 0-.282-.006-.422A6.685 6.685 0 0 0 16 3.542a6.658 6.658 0 0 1-1.889.518 3.301 3.301 0 0 0 1.447-1.817 6.533 6.533 0 0 1-2.087.793A3.286 3.286 0 0 0 7.875 6.03a9.325 9.325 0 0 1-6.767-3.429 3.289 3.289 0 0 0 1.018 4.382A3.323 3.323 0 0 1 .64 6.575v.045a3.288 3.288 0 0 0 2.632 3.218 3.203 3.203 0 0 1-.865.115 3.23 3.23 0 0 1-.614-.057 3.283 3.283 0 0 0 3.067 2.277A6.588 6.588 0 0 1 .78 13.58a6.32 6.32 0 0 1-.78-.045A9.344 9.344 0 0 0 5.026 15z"/>
</symbol>
<symbol id="bi-facebook" viewBox="0 0 16 16">
  <path d="M16 8.049c0-4.446-3.582-8.05-8-8.05C3.58 0-.002 3.603-.002 8.05c0 4.017 2.926 7.347 6.75 7.951v-5.625h-2.03V8.05H6.75V6.275c0-2.017 1.195-3.131 3.022-3.131.876 0 1.791.157 1.791.157v1.98h-1.009c-.993 0-1.303.621-1.303 1.258v1.51h2.218l-.354 2.326H9.25V16c3.824-.604 6.75-3.934 6.75-7.951z"/>
</symbol>
<symbol id="bi-emoji-frown" viewBox="0 0 16 16">
	<path d="M8 15A7 7 0 1 1 8 1a7 7 0 0 1 0 14zm0 1A8 8 0 1 0 8 0a8 8 0 0 0 0 16z"/>
	<path d="M4.285 12.433a.5.5 0 0 0 .683-.183A3.498 3.498 0 0 1 8 10.5c1.295 0 2.426.703 3.032 1.75a.5.5 0 0 0 .866-.5A4.498 4.498 0 0 0 8 9.5a4.5 4.5 0 0 0-3.898 2.25.5.5 0 0 0 .183.683zM7 6.5C7 7.328 6.552 8 6 8s-1-.672-1-1.5S5.448 5 6 5s1 .672 1 1.5zm4 0c0 .828-.448 1.5-1 1.5s-1-.672-1-1.5S9.448 5 10 5s1 .672 1 1.5z"/>
</symbol>
<symbol id="bi-arrow-up" viewBox="0 0 16 16">
	<path fill-rule="evenodd" d="M15 2a1 1 0 0 0-1-1H2a1 1 0 0 0-1 1v12a1 1 0 0 0 1 1h12a1 1 0 0 0 1-1V2zM0 2a2 2 0 0 1 2-2h12a2 2 0 0 1 2 2v12a2 2 0 0 1-2 2H2a2 2 0 0 1-2-2V2zm8.5 9.5a.5.5 0 0 1-1 0V5.707L5.354 7.854a.5.5 0 1 1-.708-.708l3-3a.5.5 0 0 1 .708 0l3 3a.5.5 0 0 1-.708.708L8.5 5.707V11.5z"/>
</symbol>
<symbol id="bi-percent" viewBox="0 0 16 16">
	<path d="M13.442 2.558a.625.625 0 0 1 0 .884l-10 10a.625.625 0 1 1-.884-.884l10-10a.625.625 0 0 1 .884 0zM4.5 6a1.5 1.5 0 1 1 0-3 1.5 1.5 0 0 1 0 3zm0 1a2.5 2.5 0 1 0 0-5 2.5 2.5 0 0 0 0 5zm7 6a1.5 1.5 0 1 1 0-3 1.5 1.5 0 0 1 0 3zm0 1a2.5 2.5 0 1 0 0-5 2.5 2.5 0 0 0 0 5z"/>
</symbol>
<symbol id="bi-share" viewBox="0 0 16 16">
	<path d="M11 2.5a2.5 2.5 0 1 1 .603 1.628l-6.718 3.12a2.499 2.499 0 0 1 0 1.504l6.718 3.12a2.5 2.5 0 1 1-.488.876l-6.718-3.12a2.5 2.5 0 1 1 0-3.256l6.718-3.12A2.5 2.5 0 0 1 11 2.5z"/>
</symbol>
<symbol id="bi-delete" viewBox="0 0 16 16">
	<path fill-rule="evenodd" d="M13.854 2.146a.5.5 0 0 1 0 .708l-11 11a.5.5 0 0 1-.708-.708l11-11a.5.5 0 0 1 .708 0Z"/>
	<path fill-rule="evenodd" d="M2.146 2.146a.5.5 0 0 0 0 .708l11 11a.5.5 0 0 0 .708-.708l-11-11a.5.5 0 0 0-.708 0Z"/>
</symbol>
<symbol id="bi-star-outline" viewBox="0 0 16 16">
	<path fill-rule="evenodd" d="M2.866 14.85c-.078.444.36.791.746.593l4.39-2.256 4.389 2.256c.386.198.824-.149.746-.592l-.83-4.73 3.523-3.356c.329-.314.158-.888-.283-.95l-4.898-.696L8.465.792a.513.513 0 00-.927 0L5.354 5.12l-4.898.696c-.441.062-.612.636-.283.95l3.523 3.356-.83 4.73zm4.905-2.767l-3.686 1.894.694-3.957a.565.565 0 00-.163-.505L1.71 6.745l4.052-.576a.525.525 0 00.393-.288l1.847-3.658 1.846 3.658a.525.525 0 00.393.288l4.052.575-2.906 2.77a.564.564 0 00-.163.506l.694 3.957-3.686-1.894a.503.503 0 00-.461 0z" clip-rule="evenodd"/>
</symbol>
<symbol id="bi-star" viewBox="0 0 16 16">
	<path d="M3.612 15.443c-.386.198-.824-.149-.746-.592l.83-4.73L.173 6.765c-.329-.314-.158-.888.283-.95l4.898-.696L7.538.792c.197-.39.73-.39.927 0l2.184 4.327 4.898.696c.441.062.612.636.283.95l-3.523 3.356.83 4.73c.078.443-.36.79-.746.592L8 13.187l-4.389 2.256z"/>
</symbol>
<symbol id="bi-chevron-left" viewBox="0 0 16 16">
	<path fill-rule="evenodd" d="M11.354 1.646a.5.5 0 010 .708L5.707 8l5.647 5.646a.5.5 0 01-.708.708l-6-6a.5.5 0 010-.708l6-6a.5.5 0 01.708 0z" clip-rule="evenodd"/>
</symbol>
<symbol id="bi-chevron-right" viewBox="0 0 16 16">
	<path fill-rule="evenodd" d="M4.646 1.646a.5.5 0 0 1 .708 0l6 6a.5.5 0 0 1 0 .708l-6 6a.5.5 0 0 1-.708-.708L10.293 8 4.646 2.354a.5.5 0 0 1 0-.708z"/>
</symbol>
<symbol id="bi-chevron-down" viewBox="0 0 16 16">
	<path fill-rule="evenodd" d="M1.646 4.646a.5.5 0 01.708 0L8 10.293l5.646-5.647a.5.5 0 01.708.708l-6 6a.5.5 0 01-.708 0l-6-6a.5.5 0 010-.708z" clip-rule="evenodd"/>
</symbol>
<symbol id="bi-plus-circle" viewBox="0 0 16 16">
	<path fill-rule="evenodd" d="M8 3.5a.5.5 0 01.5.5v4a.5.5 0 01-.5.5H4a.5.5 0 010-1h3.5V4a.5.5 0 01.5-.5z" clip-rule="evenodd"/>
	<path fill-rule="evenodd" d="M7.5 8a.5.5 0 01.5-.5h4a.5.5 0 010 1H8.5V12a.5.5 0 01-1 0V8z" clip-rule="evenodd"/>
	<path fill-rule="evenodd" d="M8 15A7 7 0 108 1a7 7 0 000 14zm0 1A8 8 0 108 0a8 8 0 000 16z" clip-rule="evenodd"/>
</symbol>
<symbol id="bi-plus" viewBox="0 0 16 16">
	<path fill-rule="evenodd" d="M8 3.5a.5.5 0 01.5.5v4a.5.5 0 01-.5.5H4a.5.5 0 010-1h3.5V4a.5.5 0 01.5-.5z" clip-rule="evenodd"/>
	<path fill-rule="evenodd" d="M7.5 8a.5.5 0 01.5-.5h4a.5.5 0 010 1H8.5V12a.5.5 0 01-1 0V8z" clip-rule="evenodd"/>
</symbol>
<symbol id="bi-minus" viewBox="0 0 16 16">
	<path fill-rule="evenodd" d="M2.5 8a.5.5 0 01.5-.5h10.5a.5.5 0 010 1H3a.5.5 0 01-.5-.5z" clip-rule="evenodd"/>
</symbol>
<symbol id="bi-pen" viewBox="0 0 16 16">
	<path fill-rule="evenodd" d="M5.707 13.707a1 1 0 01-.39.242l-3 1a1 1 0 01-1.266-1.265l1-3a1 1 0 01.242-.391L10.086 2.5a2 2 0 012.828 0l.586.586a2 2 0 010 2.828l-7.793 7.793zM3 11l7.793-7.793a1 1 0 011.414 0l.586.586a1 1 0 010 1.414L5 13l-3 1 1-3z" clip-rule="evenodd"/>
	<path fill-rule="evenodd" d="M9.854 2.56a.5.5 0 00-.708 0L5.854 5.855a.5.5 0 01-.708-.708L8.44 1.854a1.5 1.5 0 012.122 0l.293.292a.5.5 0 01-.707.708l-.293-.293z" clip-rule="evenodd"/>
	<path d="M13.293 1.207a1 1 0 011.414 0l.03.03a1 1 0 01.03 1.383L13.5 4 12 2.5l1.293-1.293z"/>
</symbol>
<symbol id="bi-image" viewBox="0 0 16 16">
	<path fill-rule="evenodd" d="M14.002 2h-12a1 1 0 00-1 1v10a1 1 0 001 1h12a1 1 0 001-1V3a1 1 0 00-1-1zm-12-1a2 2 0 00-2 2v10a2 2 0 002 2h12a2 2 0 002-2V3a2 2 0 00-2-2h-12z" clip-rule="evenodd"/>
	<path d="M10.648 7.646a.5.5 0 01.577-.093L15.002 9.5V14h-14v-2l2.646-2.354a.5.5 0 01.63-.062l2.66 1.773 3.71-3.71z"/>
	<path fill-rule="evenodd" d="M4.502 7a1.5 1.5 0 100-3 1.5 1.5 0 000 3z" clip-rule="evenodd"/>
</symbol>
<symbol id="bi-patch-check" viewBox="0 0 16 16">
	<path fill-rule="evenodd" d="M10.273 2.513l-.921-.944.715-.698.622.637.89-.011a2.89 2.89 0 0 1 2.924 2.924l-.01.89.636.622a2.89 2.89 0 0 1 0 4.134l-.637.622.011.89a2.89 2.89 0 0 1-2.924 2.924l-.89-.01-.622.636a2.89 2.89 0 0 1-4.134 0l-.622-.637-.89.011a2.89 2.89 0 0 1-2.924-2.924l.01-.89-.636-.622a2.89 2.89 0 0 1 0-4.134l.637-.622-.011-.89a2.89 2.89 0 0 1 2.924-2.924l.89.01.622-.636a2.89 2.89 0 0 1 4.134 0l-.715.698a1.89 1.89 0 0 0-2.704 0l-.92.944-1.32-.016a1.89 1.89 0 0 0-1.911 1.912l.016 1.318-.944.921a1.89 1.89 0 0 0 0 2.704l.944.92-.016 1.32a1.89 1.89 0 0 0 1.912 1.911l1.318-.016.921.944a1.89 1.89 0 0 0 2.704 0l.92-.944 1.32.016a1.89 1.89 0 0 0 1.911-1.912l-.016-1.318.944-.921a1.89 1.89 0 0 0 0-2.704l-.944-.92.016-1.32a1.89 1.89 0 0 0-1.912-1.911l-1.318.016z"/>
  <path fill-rule="evenodd" d="M10.354 6.146a.5.5 0 0 1 0 .708l-3 3a.5.5 0 0 1-.708 0l-1.5-1.5a.5.5 0 1 1 .708-.708L7 8.793l2.646-2.647a.5.5 0 0 1 .708 0z"/>
</symbol>
<!-- END bootstrap icons -->

</defs>
</svg>